<?xml version="1.0" encoding="us-ascii" standalone="no"?><svg xmlns="http://www.w3.org/2000/svg" xmlns:xlink="http://www.w3.org/1999/xlink" contentStyleType="text/css" height="444px" preserveAspectRatio="none" style="width:577px;height:444px;background:#FFFFFF;" version="1.1" viewBox="0 0 577 444" width="577px" zoomAndPan="magnify"><defs/><g><!--cluster No Good at All--><g id="cluster_No Good at All"><rect fill="none" height="322.5" rx="2.5" ry="2.5" style="stroke:#181818;stroke-width:1.0;" width="251" x="15.0076" y="7"/><polygon fill="none" points="249.0076,12,249.0076,26,261.0076,26,261.0076,18,255.0076,12,249.0076,12" style="stroke:#181818;stroke-width:1.0;"/><line style="stroke:#181818;stroke-width:1.0;" x1="255.0076" x2="255.0076" y1="12" y2="18"/><line style="stroke:#181818;stroke-width:1.0;" x1="261.0076" x2="255.0076" y1="18" y2="18"/><text fill="#000000" font-family="sans-serif" font-size="14" font-weight="bold" lengthAdjust="spacing" textLength="101" x="90.0076" y="23.9659">No Good at All</text></g><!--cluster Good--><g id="cluster_Good"><rect fill="none" height="431" rx="2.5" ry="2.5" style="stroke:#181818;stroke-width:1.0;" width="275" x="290.0076" y="7"/><polygon fill="none" points="548.0076,12,548.0076,26,560.0076,26,560.0076,18,554.0076,12,548.0076,12" style="stroke:#181818;stroke-width:1.0;"/><line style="stroke:#181818;stroke-width:1.0;" x1="554.0076" x2="554.0076" y1="12" y2="18"/><line style="stroke:#181818;stroke-width:1.0;" x1="560.0076" x2="554.0076" y1="18" y2="18"/><text fill="#000000" font-family="sans-serif" font-size="14" font-weight="bold" lengthAdjust="spacing" textLength="37" x="409.0076" y="23.9659">Good</text></g><!--entity A--><g id="elem_A"><ellipse cx="140.0076" cy="61" fill="#F1F1F1" rx="12" ry="12" style="stroke:#181818;stroke-width:0.5;"/><polygon fill="#181818" points="136.0076,49,142.0076,44,140.0076,49,142.0076,54,136.0076,49" style="stroke:#181818;stroke-width:1.0;"/><text fill="#000000" font-family="sans-serif" font-size="14" lengthAdjust="spacing" textLength="9" x="135.5076" y="91.9659">A</text></g><!--entity B--><g id="elem_B"><rect fill="#F1F1F1" height="49.0679" rx="2.5" ry="2.5" style="stroke:#181818;stroke-width:0.5;" width="49" x="31.5076" y="156"/><rect fill="#F1F1F1" height="10" style="stroke:#181818;stroke-width:0.5;" width="15" x="60.5076" y="161"/><rect fill="#F1F1F1" height="2" style="stroke:#181818;stroke-width:0.5;" width="4" x="58.5076" y="163"/><rect fill="#F1F1F1" height="2" style="stroke:#181818;stroke-width:0.5;" width="4" x="58.5076" y="167"/><text fill="#000000" font-family="sans-serif" font-size="14" lengthAdjust="spacing" textLength="9" x="46.5076" y="190.9659">B</text></g><!--entity C--><g id="elem_C"><rect fill="#F1F1F1" height="49.0679" rx="2.5" ry="2.5" style="stroke:#181818;stroke-width:0.5;" width="49" x="115.5076" y="156"/><rect fill="#F1F1F1" height="10" style="stroke:#181818;stroke-width:0.5;" width="15" x="144.5076" y="161"/><rect fill="#F1F1F1" height="2" style="stroke:#181818;stroke-width:0.5;" width="4" x="142.5076" y="163"/><rect fill="#F1F1F1" height="2" style="stroke:#181818;stroke-width:0.5;" width="4" x="142.5076" y="167"/><text fill="#000000" font-family="sans-serif" font-size="14" lengthAdjust="spacing" textLength="9" x="130.5076" y="190.9659">C</text></g><!--entity D--><g id="elem_D"><rect fill="#F1F1F1" height="49.0679" rx="2.5" ry="2.5" style="stroke:#181818;stroke-width:0.5;" width="50" x="200.0076" y="156"/><rect fill="#F1F1F1" height="10" style="stroke:#181818;stroke-width:0.5;" width="15" x="230.0076" y="161"/><rect fill="#F1F1F1" height="2" style="stroke:#181818;stroke-width:0.5;" width="4" x="228.0076" y="163"/><rect fill="#F1F1F1" height="2" style="stroke:#181818;stroke-width:0.5;" width="4" x="228.0076" y="167"/><text fill="#000000" font-family="sans-serif" font-size="14" lengthAdjust="spacing" textLength="10" x="215.0076" y="190.9659">D</text></g><!--entity DB--><g id="elem_DB"><path d="M120.5076,275.5 C120.5076,265.5 140.0076,265.5 140.0076,265.5 C140.0076,265.5 159.5076,265.5 159.5076,275.5 L159.5076,303.5679 C159.5076,313.5679 140.0076,313.5679 140.0076,313.5679 C140.0076,313.5679 120.5076,313.5679 120.5076,303.5679 L120.5076,275.5 " fill="#F1F1F1" style="stroke:#181818;stroke-width:0.5;"/><path d="M120.5076,275.5 C120.5076,285.5 140.0076,285.5 140.0076,285.5 C140.0076,285.5 159.5076,285.5 159.5076,275.5 " fill="none" style="stroke:#181818;stroke-width:0.5;"/><text fill="#000000" font-family="sans-serif" font-size="14" lengthAdjust="spacing" textLength="19" x="130.5076" y="304.4659">DB</text></g><!--entity A2--><g id="elem_A2"><ellipse cx="427.0076" cy="61" fill="#F1F1F1" rx="12" ry="12" style="stroke:#181818;stroke-width:0.5;"/><polygon fill="#181818" points="423.0076,49,429.0076,44,427.0076,49,429.0076,54,423.0076,49" style="stroke:#181818;stroke-width:1.0;"/><text fill="#000000" font-family="sans-serif" font-size="14" lengthAdjust="spacing" textLength="17" x="418.5076" y="91.9659">A2</text></g><!--entity B2--><g id="elem_B2"><rect fill="#F1F1F1" height="49.0679" rx="2.5" ry="2.5" style="stroke:#181818;stroke-width:0.5;" width="57" x="306.5076" y="156"/><rect fill="#F1F1F1" height="10" style="stroke:#181818;stroke-width:0.5;" width="15" x="343.5076" y="161"/><rect fill="#F1F1F1" height="2" style="stroke:#181818;stroke-width:0.5;" width="4" x="341.5076" y="163"/><rect fill="#F1F1F1" height="2" style="stroke:#181818;stroke-width:0.5;" width="4" x="341.5076" y="167"/><text fill="#000000" font-family="sans-serif" font-size="14" lengthAdjust="spacing" textLength="17" x="321.5076" y="190.9659">B2</text></g><!--entity C2--><g id="elem_C2"><rect fill="#F1F1F1" height="49.0679" rx="2.5" ry="2.5" style="stroke:#181818;stroke-width:0.5;" width="57" x="398.5076" y="156"/><rect fill="#F1F1F1" height="10" style="stroke:#181818;stroke-width:0.5;" width="15" x="435.5076" y="161"/><rect fill="#F1F1F1" height="2" style="stroke:#181818;stroke-width:0.5;" width="4" x="433.5076" y="163"/><rect fill="#F1F1F1" height="2" style="stroke:#181818;stroke-width:0.5;" width="4" x="433.5076" y="167"/><text fill="#000000" font-family="sans-serif" font-size="14" lengthAdjust="spacing" textLength="17" x="413.5076" y="190.9659">C2</text></g><!--entity D2--><g id="elem_D2"><rect fill="#F1F1F1" height="49.0679" rx="2.5" ry="2.5" style="stroke:#181818;stroke-width:0.5;" width="58" x="491.0076" y="156"/><rect fill="#F1F1F1" height="10" style="stroke:#181818;stroke-width:0.5;" width="15" x="529.0076" y="161"/><rect fill="#F1F1F1" height="2" style="stroke:#181818;stroke-width:0.5;" width="4" x="527.0076" y="163"/><rect fill="#F1F1F1" height="2" style="stroke:#181818;stroke-width:0.5;" width="4" x="527.0076" y="167"/><text fill="#000000" font-family="sans-serif" font-size="14" lengthAdjust="spacing" textLength="18" x="506.0076" y="190.9659">D2</text></g><!--entity SinglePoint--><g id="elem_SinglePoint"><rect fill="#F1F1F1" height="49.0679" rx="2.5" ry="2.5" style="stroke:#181818;stroke-width:0.5;" width="116" x="369.0076" y="265"/><rect fill="#F1F1F1" height="10" style="stroke:#181818;stroke-width:0.5;" width="15" x="465.0076" y="270"/><rect fill="#F1F1F1" height="2" style="stroke:#181818;stroke-width:0.5;" width="4" x="463.0076" y="272"/><rect fill="#F1F1F1" height="2" style="stroke:#181818;stroke-width:0.5;" width="4" x="463.0076" y="276"/><text fill="#000000" font-family="sans-serif" font-size="14" lengthAdjust="spacing" textLength="76" x="384.0076" y="299.9659">SinglePoint</text></g><!--entity DB2--><g id="elem_DB2"><path d="M403.5076,384 C403.5076,374 427.0076,374 427.0076,374 C427.0076,374 450.5076,374 450.5076,384 L450.5076,412.0679 C450.5076,422.0679 427.0076,422.0679 427.0076,422.0679 C427.0076,422.0679 403.5076,422.0679 403.5076,412.0679 L403.5076,384 " fill="#F1F1F1" style="stroke:#181818;stroke-width:0.5;"/><path d="M403.5076,384 C403.5076,394 427.0076,394 427.0076,394 C427.0076,394 450.5076,394 450.5076,384 " fill="none" style="stroke:#181818;stroke-width:0.5;"/><text fill="#000000" font-family="sans-serif" font-size="14" lengthAdjust="spacing" textLength="27" x="413.5076" y="412.9659">DB2</text></g><!--link A to B--><g id="link_A_B"><path d="M123.8076,92.32 C109.6976,110.47 92.9318,132.0343 78.1818,150.9943 " fill="none" id="A-to-B" style="stroke:#181818;stroke-width:1.0;"/><polygon fill="#181818" points="74.4976,155.73,83.181,151.0825,77.5678,151.7836,76.8667,146.1703,74.4976,155.73" style="stroke:#181818;stroke-width:1.0;"/></g><!--link A to C--><g id="link_A_C"><path d="M140.0076,96.01 C140.0076,113.93 140.0076,132.11 140.0076,149.83 " fill="none" id="A-to-C" style="stroke:#181818;stroke-width:1.0;"/><polygon fill="#181818" points="140.0076,155.83,144.0076,146.83,140.0076,150.83,136.0076,146.83,140.0076,155.83" style="stroke:#181818;stroke-width:1.0;"/></g><!--link A to D--><g id="link_A_D"><path d="M156.1976,92.07 C170.4576,110.18 187.5176,131.8645 202.4976,150.9045 " fill="none" id="A-to-D" style="stroke:#181818;stroke-width:1.0;"/><polygon fill="#181818" points="206.2076,155.62,203.7863,146.0734,203.116,151.6904,197.499,151.0201,206.2076,155.62" style="stroke:#181818;stroke-width:1.0;"/></g><!--link B to DB--><g id="link_B_DB"><path d="M74.6476,205.25 C88.6676,223.1 104.0734,242.72 118.0034,260.47 " fill="none" id="B-to-DB" style="stroke:#181818;stroke-width:1.0;"/><polygon fill="#181818" points="121.7076,265.19,119.298,255.6405,118.6208,261.2566,113.0046,260.5794,121.7076,265.19" style="stroke:#181818;stroke-width:1.0;"/><text fill="#000000" font-family="sans-serif" font-size="13" lengthAdjust="spacing" textLength="48" x="15" y="226.9686">3 x Save</text><text fill="#000000" font-family="sans-serif" font-size="13" lengthAdjust="spacing" textLength="66" x="6" y="244.6746">MultiOrder</text></g><!--link C to DB--><g id="link_C_DB"><path d="M140.0076,205.25 C140.0076,223.1 140.0076,241.44 140.0076,259.19 " fill="none" id="C-to-DB" style="stroke:#181818;stroke-width:1.0;"/><polygon fill="#181818" points="140.0076,265.19,144.0076,256.19,140.0076,260.19,136.0076,256.19,140.0076,265.19" style="stroke:#181818;stroke-width:1.0;"/></g><!--link D to DB--><g id="link_D_DB"><path d="M206.1476,205.25 C191.9576,223.1 176.3596,242.7419 162.2596,260.4919 " fill="none" id="D-to-DB" style="stroke:#181818;stroke-width:1.0;"/><polygon fill="#181818" points="158.5276,265.19,167.2577,260.6309,161.6376,261.2749,160.9936,255.6548,158.5276,265.19" style="stroke:#181818;stroke-width:1.0;"/></g><!--link A2 to B2--><g id="link_A2_B2"><path d="M410.9776,90.31 C395.5376,108.44 375.9976,131.3819 359.2476,151.0519 " fill="none" id="A2-to-B2" style="stroke:#181818;stroke-width:1.0;"/><polygon fill="#181818" points="355.3576,155.62,364.2381,151.3611,358.5993,151.8132,358.1472,146.1745,355.3576,155.62" style="stroke:#181818;stroke-width:1.0;"/></g><!--link A2 to C2--><g id="link_A2_C2"><path d="M427.0076,96.01 C427.0076,113.93 427.0076,132.11 427.0076,149.83 " fill="none" id="A2-to-C2" style="stroke:#181818;stroke-width:1.0;"/><polygon fill="#181818" points="427.0076,155.83,431.0076,146.83,427.0076,150.83,423.0076,146.83,427.0076,155.83" style="stroke:#181818;stroke-width:1.0;"/></g><!--link A2 to D2--><g id="link_A2_D2"><path d="M443.2076,90.31 C458.8176,108.44 478.5936,131.4025 495.5236,151.0725 " fill="none" id="A2-to-D2" style="stroke:#181818;stroke-width:1.0;"/><polygon fill="#181818" points="499.4376,155.62,496.5982,146.1893,496.1759,151.8304,490.5348,151.4081,499.4376,155.62" style="stroke:#181818;stroke-width:1.0;"/></g><!--link B2 to SinglePoint--><g id="link_B2_SinglePoint"><path d="M355.4276,205.25 C370.6676,222.98 387.5067,242.5497 402.7367,260.2697 " fill="none" id="B2-to-SinglePoint" style="stroke:#181818;stroke-width:1.0;"/><polygon fill="#181818" points="406.6476,264.82,403.8148,255.3873,403.3886,261.0281,397.7478,260.6018,406.6476,264.82" style="stroke:#181818;stroke-width:1.0;"/></g><!--link C2 to SinglePoint--><g id="link_C2_SinglePoint"><path d="M427.0076,205.25 C427.0076,222.98 427.0076,241.1 427.0076,258.82 " fill="none" id="C2-to-SinglePoint" style="stroke:#181818;stroke-width:1.0;"/><polygon fill="#181818" points="427.0076,264.82,431.0076,255.82,427.0076,259.82,423.0076,255.82,427.0076,264.82" style="stroke:#181818;stroke-width:1.0;"/></g><!--link D2 to SinglePoint--><g id="link_D2_SinglePoint"><path d="M499.3676,205.25 C483.9576,222.98 466.9234,242.5713 451.5234,260.2913 " fill="none" id="D2-to-SinglePoint" style="stroke:#181818;stroke-width:1.0;"/><polygon fill="#181818" points="447.5876,264.82,456.5105,260.6508,450.8675,261.0461,450.4722,255.403,447.5876,264.82" style="stroke:#181818;stroke-width:1.0;"/></g><!--link SinglePoint to DB2--><g id="link_SinglePoint_DB2"><path d="M427.0076,314.14 C427.0076,331.91 427.0076,350.13 427.0076,367.8 " fill="none" id="SinglePoint-to-DB2" style="stroke:#181818;stroke-width:1.0;"/><polygon fill="#181818" points="427.0076,373.8,431.0076,364.8,427.0076,368.8,423.0076,364.8,427.0076,373.8" style="stroke:#181818;stroke-width:1.0;"/><text fill="#000000" font-family="sans-serif" font-size="13" lengthAdjust="spacing" textLength="97" x="318.792" y="335.7744">Save MultiOrder</text></g><!--SRC=[RP1D2y8m38Rl-nMXzrtgNTXQyEG7xEebRbKAjPKPHH3_k-kgswA37fud9ELDi2Lxn9f0R0AiGcW02Ghd13mpW3fuQeE3ekVp9NZZ2KfcYfdkh4720ruDwDZPlGBoVDcF9L83nVOIn08UKE7TxFtwviXksyQq8ZN4AJMY_k8hot387eF_99OyCbV5LNEjh3yvimlM4zz6VjQHQHyviffm_rkPc7-bvefwhZWn4F4oy7yOsTtW3G00]--></g></svg>